<?xml version="1.0" encoding="UTF-8" standalone="no"?><!DOCTYPE svg PUBLIC "-//W3C//DTD SVG 1.1//EN" "http://www.w3.org/Graphics/SVG/1.1/DTD/svg11.dtd"><svg width="100%" height="100%" viewBox="0 0 200 200" version="1.1" xmlns="http://www.w3.org/2000/svg" xmlns:xlink="http://www.w3.org/1999/xlink" xml:space="preserve" xmlns:serif="http://www.serif.com/" style="fill-rule:evenodd;clip-rule:evenodd;stroke-linejoin:round;stroke-miterlimit:2;"><rect id="Square-Logo" serif:id="Square Logo" x="0" y="0" width="200" height="200" style="fill:none;"/><clipPath id="_clip1"><rect x="0" y="0" width="200" height="200"/></clipPath><g clip-path="url(#_clip1)"><g id="Logo"><g id="Logo1" serif:id="Logo"><path d="M87.934,17.316c1.247,-1.487 2.571,-2.906 3.961,-4.258c0.961,-0.935 1.955,-1.834 2.978,-2.702c-9.669,-6.804 -21.531,-10.689 -34.306,-10.334c-30.988,0.861 -55.386,26.845 -55.386,57.844l0,50.942c0,2.862 2.319,5.182 5.181,5.182c2.862,0 5.182,-2.32 5.182,-5.182l0,-51.813c0,-25.713 20.919,-46.633 46.632,-46.633c1.745,0 3.464,0.11 5.161,0.298c7.37,0.816 14.219,3.362 20.149,7.216c0.151,-0.185 0.294,-0.377 0.448,-0.56" style="fill:#5e81ac;fill-rule:nonzero;"/><path d="M176.896,101.569c-2.547,2.401 -5.314,4.566 -8.269,6.47c10.379,9.154 16.675,22.834 15.736,37.93c-1.488,23.925 -21.368,43.044 -45.332,43.654c-22.854,0.58 -42.146,-15.378 -46.772,-36.737c-0.513,-2.373 -2.629,-4.054 -5.056,-4.054c-3.326,0 -5.778,3.084 -5.068,6.334c5.989,27.457 31.829,47.583 61.666,44.527c27.056,-2.77 48.569,-24.753 50.817,-51.857c1.512,-18.223 -5.622,-34.85 -17.722,-46.267" style="fill:#d8dee9;fill-rule:nonzero;"/><path d="M165.506,91.972c-2.868,2.527 -6.045,4.705 -9.47,6.474c-6.395,3.303 -13.641,5.181 -21.322,5.181c-3.44,0 -6.788,-0.396 -10.017,-1.11c-3.978,-0.878 -7.775,-2.248 -11.304,-4.071c-3.425,-1.769 -6.602,-3.947 -9.47,-6.474c-7.046,-6.211 -12.199,-14.514 -14.499,-23.923c-0.867,-3.546 -1.341,-7.245 -1.341,-11.054c0,-10.261 3.338,-19.752 8.975,-27.461c0.447,-0.611 0.906,-1.208 1.38,-1.796c1.579,-1.952 3.307,-3.776 5.173,-5.451c0.723,-0.648 1.468,-1.267 2.23,-1.869c7.948,-6.288 17.977,-10.055 28.873,-10.055c25.714,0 46.632,20.918 46.632,46.632c0,13.919 -6.138,26.426 -15.84,34.977m8.266,6.474c6.186,-5.832 11.073,-13.027 14.174,-21.1c0.014,-0.035 0.029,-0.07 0.042,-0.105c0.305,-0.799 0.588,-1.61 0.857,-2.425c0.041,-0.126 0.086,-0.249 0.127,-0.375c0.232,-0.719 0.442,-1.448 0.647,-2.18c0.061,-0.222 0.129,-0.442 0.188,-0.666c0.167,-0.628 0.312,-1.264 0.458,-1.901c0.075,-0.328 0.158,-0.652 0.226,-0.982c0.111,-0.522 0.2,-1.051 0.296,-1.578c0.08,-0.447 0.169,-0.889 0.238,-1.339c0.061,-0.386 0.103,-0.779 0.154,-1.168c0.081,-0.59 0.166,-1.18 0.226,-1.777c0.019,-0.169 0.026,-0.34 0.041,-0.508c0.165,-1.764 0.258,-3.547 0.258,-5.352c0,-3.581 -0.346,-7.08 -0.977,-10.478c-4.937,-26.435 -28.167,-46.512 -56.013,-46.512c-0.58,0 -1.157,0.021 -1.736,0.038c-0.297,0.009 -0.597,0.009 -0.893,0.023c-0.563,0.026 -1.12,0.071 -1.678,0.112c-0.335,0.025 -0.673,0.046 -1.007,0.077c-0.567,0.053 -1.131,0.12 -1.693,0.188c-0.309,0.039 -0.619,0.076 -0.927,0.119c-0.587,0.081 -1.17,0.174 -1.751,0.274c-0.261,0.045 -0.521,0.091 -0.781,0.14c-0.624,0.115 -1.245,0.239 -1.859,0.375c-0.18,0.04 -0.358,0.083 -0.536,0.125c-0.69,0.159 -1.379,0.326 -2.059,0.51c-0.013,0.004 -0.024,0.008 -0.035,0.01c-7.924,2.157 -15.165,5.984 -21.323,11.079c-0.155,0.128 -0.302,0.265 -0.455,0.394c-1.023,0.868 -2.016,1.768 -2.977,2.703c-1.39,1.352 -2.714,2.771 -3.962,4.258c-0.153,0.182 -0.296,0.375 -0.447,0.561c-2.179,2.662 -4.13,5.516 -5.804,8.548c-1.639,2.967 -3.018,6.096 -4.113,9.353c-0.046,0.135 -0.093,0.268 -0.136,0.401c-0.154,0.468 -0.3,0.937 -0.442,1.41c-0.115,0.385 -0.222,0.774 -0.329,1.162c-0.145,0.524 -0.282,1.05 -0.412,1.58c-0.125,0.511 -0.245,1.025 -0.356,1.543c-0.059,0.273 -0.119,0.547 -0.174,0.821c-0.153,0.772 -0.294,1.549 -0.417,2.331c-0.025,0.159 -0.045,0.32 -0.069,0.48c-0.119,0.806 -0.225,1.617 -0.31,2.434c-0.005,0.052 -0.011,0.104 -0.018,0.155c-0.091,0.909 -0.16,1.825 -0.208,2.748c-0.004,0.076 -0.007,0.153 -0.011,0.231c-0.046,0.929 -0.071,1.865 -0.071,2.807c0,0.981 0.024,1.957 0.074,2.928c0.007,0.135 0.023,0.268 0.03,0.402c0.044,0.771 0.1,1.54 0.176,2.304c0.185,1.834 0.456,3.644 0.808,5.425c2.345,11.857 8.37,22.407 16.844,30.397c2.547,2.4 5.313,4.569 8.266,6.472c4.628,2.984 9.711,5.314 15.122,6.867c0.069,0.02 0.138,0.039 0.208,0.059c0.788,0.223 1.585,0.426 2.387,0.615c0.175,0.041 0.349,0.082 0.523,0.121c0.702,0.159 1.409,0.302 2.121,0.435c0.3,0.056 0.601,0.111 0.904,0.161c0.494,0.083 0.991,0.162 1.49,0.233c0.464,0.066 0.932,0.124 1.4,0.178c0.383,0.046 0.766,0.092 1.151,0.129c0.707,0.067 1.418,0.121 2.133,0.162c0.17,0.01 0.338,0.026 0.506,0.034c0.943,0.046 1.892,0.073 2.846,0.073c0.935,0 1.861,-0.027 2.783,-0.072c0.123,-0.006 0.244,-0.012 0.366,-0.019c0.818,-0.045 1.63,-0.107 2.439,-0.186c0.117,-0.011 0.234,-0.02 0.351,-0.032c0.875,-0.09 1.744,-0.201 2.607,-0.331c0.191,-0.03 0.378,-0.065 0.569,-0.095c0.623,-0.1 1.241,-0.211 1.856,-0.333c0.337,-0.065 0.673,-0.133 1.008,-0.205c0.454,-0.097 0.905,-0.204 1.355,-0.313c0.879,-0.212 1.751,-0.44 2.613,-0.694c0.135,-0.038 0.27,-0.074 0.402,-0.113c0.586,-0.176 1.166,-0.363 1.744,-0.557c0.092,-0.032 0.184,-0.063 0.275,-0.094c4.406,-1.507 8.573,-3.54 12.424,-6.023l0.012,0.012c2.955,-1.904 5.722,-4.07 8.269,-6.471c-0.005,-0.004 -0.011,-0.009 -0.015,-0.013" style="fill:#4c566a;fill-rule:nonzero;"/></g><g id="nix-snowflake"><path id="use4863" d="M127.492,45.984l-16.443,28.477l-3.839,-6.507l4.431,-7.627l-8.801,-0.023l-1.875,-3.252l1.915,-3.326l12.527,0.039l4.503,-7.761l7.582,-0.02Z" style="fill:#88c0d0;"/><path id="use4865" d="M128.754,68.748l32.884,0.002l-3.717,6.579l-8.821,-0.025l4.381,7.634l-1.878,3.25l-3.839,0.004l-6.229,-10.869l-8.973,-0.018l-3.808,-6.557Z" style="fill:#88c0d0;"/><path id="use4867" d="M147.893,56.27l-16.44,-28.479l7.555,-0.071l4.389,7.651l4.421,-7.61l3.754,0.002l1.923,3.321l-6.298,10.83l4.47,7.78l-3.774,6.576Z" style="fill:#88c0d0;"/><path id="path4873" d="M121.558,57.715l16.441,28.479l-7.556,0.071l-4.389,-7.652l-4.421,7.611l-3.754,-0.002l-1.922,-3.321l6.298,-10.83l-4.471,-7.78l3.774,-6.576Z" style="fill:#5e81ac;"/><path id="use4875" d="M140.654,45.165l-32.884,-0.002l3.716,-6.579l8.821,0.025l-4.38,-7.634l1.878,-3.25l3.838,-0.004l6.23,10.869l8.973,0.018l3.808,6.557Z" style="fill:#5e81ac;"/><path id="use4877" d="M141.937,67.995l16.443,-28.478l3.839,6.508l-4.431,7.627l8.801,0.023l1.876,3.252l-1.916,3.326l-12.527,-0.039l-4.502,7.761l-7.583,0.02Z" style="fill:#5e81ac;"/></g></g></g></svg>